. 
 
http://www.torrenting.com          :     Once & For all ;)


               www . Torrenting . Com 

(((((((((((((= Enjoy No RAR releases =))))))))))))))))))))


...................................NFO:....................................

.Man on a Ledge 2012 CAM XviD - ILLUMINATI 
http://www.imdb.com/title/tt1568338/

Sources - video: P76 Thanks 
	  Audio: NoGRP Thanks 

Video
ID                               : 0
Format                           : MPEG-4 Visual
Format profile                   : Advanced Simple@L5
Format settings, BVOP            : 2
Format settings, QPel            : No
Format settings, GMC             : No warppoints
Format settings, Matrix          : Default (H.263)
Muxing mode                      : Packed bitstream
Codec ID                         : XVID
Codec ID/Hint                    : XviD
Duration                         : 1h 35mn
Bit rate                         : 1 954 Kbps
Width                            : 720 pixels
Height                           : 304 pixels
Display aspect ratio             : 2.35:1
Frame rate                       : 25.000 fps
Color space                      : YUV
Chroma subsampling               : 4:2:0
Bit depth                        : 8 bits
Scan type                        : Progressive
Compression mode                 : Lossy
Bits/(Pixel*Frame)               : 0.357
Stream size                      : 1.30 GiB (93%)
Writing library                  : XviD 64

Audio
ID                               : 1
Format                           : MPEG Audio
Format version                   : Version 1
Format profile                   : Layer 3
Mode                             : Joint stereo
Mode extension                   : MS Stereo
Codec ID                         : 55
Codec ID/Hint                    : MP3
Duration                         : 1h 35mn
Bit rate mode                    : Constant
Bit rate                         : 128 Kbps
Channel(s)                       : 2 channels
Sampling rate                    : 44.1 KHz
Compression mode                 : Lossy
Stream size                      : 87.1 MiB (6%)
Alignment                        : Split accross interleaves
Interleave, duration             : 40 ms (1.00 video frame)

Notes -
Video cut into 11 pieces, rotated and cropped 
to remove as much camera shifting as possible.
One minute missing around 30 minutes or so.


[IMG]http://i.imgur.com/D0Pnj.png[/IMG]
[IMG]http://i.imgur.com/IGimP.png[/IMG]
[IMG]http://i.imgur.com/3UCzx.png[/IMG]
[IMG]http://i.imgur.com/1b1CM.png[/IMG]
[IMG]http://i.imgur.com/Y59R8.png[/IMG]
[IMG]http://i.imgur.com/2msTW.png[/IMG]
[IMG]http://i.imgur.com/LgPYt.png[/IMG]